<?xml version="1.0" encoding="utf-8"?>
<!-- Generator: Adobe Illustrator 18.1.1, SVG Export Plug-In . SVG Version: 6.00 Build 0)  -->
<svg version="1.1" id="Layer_1" xmlns="http://www.w3.org/2000/svg" xmlns:xlink="http://www.w3.org/1999/xlink" x="0px" y="0px"
	 viewBox="0 0 400 100" enable-background="new 0 0 400 100" xml:space="preserve">
<linearGradient id="SVGID_1_" gradientUnits="userSpaceOnUse" x1="53.1278" y1="87.6441" x2="53.1278" y2="12.3559">
	<stop  offset="0" style="stop-color:#68C2E2"/>
	<stop  offset="1" style="stop-color:#316EA2"/>
</linearGradient>
<path fill="url(#SVGID_1_)" d="M47.5,85.3L17.8,55.7c-3.1-3.1-3.1-8.2,0-11.3l29.7-29.7c3.1-3.1,8.2-3.1,11.3,0l29.7,29.7
	c3.1,3.1,3.1,8.2,0,11.3L58.8,85.3C55.7,88.4,50.6,88.4,47.5,85.3z"/>
<g>
	<path fill="#FFFFFF" stroke="#3A7DAD" stroke-miterlimit="10" d="M34,69.1H23.4V48.5c0-2.5,0.1-4.8,0.2-6.9
		c-0.7,0.8-1.5,1.6-2.4,2.5l-4.4,3.6L11.2,41l13.4-10.9H34V69.1z"/>
	<path fill="#FFFFFF" stroke="#3A7DAD" stroke-miterlimit="10" d="M63.3,49.6c0,6.9-1.2,11.9-3.5,15.1c-2.3,3.2-5.8,4.8-10.6,4.8
		c-4.6,0-8.2-1.7-10.5-5c-2.4-3.3-3.5-8.3-3.5-14.9c0-6.9,1.2-12,3.5-15.2c2.3-3.2,5.8-4.8,10.6-4.8c4.6,0,8.1,1.7,10.5,5
		C62.1,38,63.3,43,63.3,49.6z M45.6,49.6c0,4.4,0.3,7.4,0.8,9.1c0.5,1.7,1.5,2.5,2.8,2.5c1.3,0,2.2-0.9,2.8-2.6
		c0.5-1.7,0.8-4.7,0.8-9c0-4.3-0.3-7.3-0.8-9.1c-0.6-1.7-1.5-2.6-2.8-2.6c-1.3,0-2.2,0.8-2.8,2.5C45.9,42.2,45.6,45.2,45.6,49.6z"/>
	<path fill="#FFFFFF" stroke="#3A7DAD" stroke-miterlimit="10" d="M92.5,49.6c0,6.9-1.2,11.9-3.5,15.1c-2.3,3.2-5.8,4.8-10.6,4.8
		c-4.6,0-8.2-1.7-10.5-5c-2.4-3.3-3.5-8.3-3.5-14.9c0-6.9,1.2-12,3.5-15.2c2.3-3.2,5.8-4.8,10.6-4.8c4.6,0,8.1,1.7,10.5,5
		C91.3,38,92.5,43,92.5,49.6z M74.9,49.6c0,4.4,0.3,7.4,0.8,9.1c0.5,1.7,1.5,2.5,2.8,2.5c1.3,0,2.2-0.9,2.8-2.6
		c0.5-1.7,0.8-4.7,0.8-9c0-4.3-0.3-7.3-0.8-9.1c-0.6-1.7-1.5-2.6-2.8-2.6c-1.3,0-2.2,0.8-2.8,2.5C75.1,42.2,74.9,45.2,74.9,49.6z"/>
</g>
<g>
	<path fill="#55AC51" d="M97.2,28.8h1.1c1.2,0,2.4,0,3.5-0.1c2,0,4.4-0.1,6.1-0.1c12.4,0,18.2,6.3,18.2,18.3
		c0,12.2-5.8,18.8-18.9,18.8c-2.2,0-4.4,0-6.1-0.1c-0.9,0-1.9,0-2.7-0.1h-1.3V28.8z M103.7,33.6v27.2c0.8,0.1,1.9,0.1,4.3,0.1
		c7.6,0,11-4.5,11-13.3c0-8.5-3.2-14-11.8-14C105.5,33.6,104.5,33.6,103.7,33.6z"/>
	<path fill="#55AC51" d="M151.2,52.5c0,4.4,0.7,7.3,1.3,9.1c0.4,1.1,0.9,2,1.4,2.6l-5,2c-0.4-0.5-0.9-1-1.3-1.7
		c-0.7-1.1-1.4-2.8-1.5-5c-1.3,4.4-3.8,6.5-8.5,6.5c-6.8,0-10-5.3-10-13.5c0-8.3,5.3-14.4,13-14.4c2.2,0,4.7,0.4,6.9,0.8
		c1.2,0.2,2.4,0.5,3.7,0.8V52.5z M144.9,50.9v-7.8c-0.7-0.2-2.5-0.6-3.5-0.6c-5.4,0-7,4-7,9.4c0,5,0.4,9.7,4.3,9.7
		C142.2,61.6,144.9,56.2,144.9,50.9z"/>
	<path fill="#55AC51" d="M172.8,60.7c-2,3.9-5.7,5.3-9.4,5.3c-2.5,0-4.3-0.7-5.7-2c-1.5-1.5-2.3-4-2.3-7.4V38.5h6.3v17.9
		c0,3.1,1,4.9,3.5,4.9c2.8,0,6.1-3,6.5-7.6V38.5h6.4l-0.3,16.1c-0.2,4.3,1.7,7.1,1.7,11.4c0,8.1-4.9,12-12.3,11.4
		c-2.3-0.2-4.4-0.7-6-1.3c-0.9-0.3-1.8-0.6-2.6-1l1.6-4.7c3,1.1,4.7,1.8,7.1,2c6.2,0.6,7.6-5.1,5.6-11.4L172.8,60.7z"/>
	<path fill="#316EA2" d="M203.2,37.8c-2-2.5-3.9-3.1-5.8-3.1c-4.7,0-6.8,4.7-6.8,12.4c0,7.4,1.7,12.5,7.5,12.5
		c2.6,0,5.1-0.7,7.1-1.5l2,6.1c-2.2,0.9-5.7,1.8-10.1,1.8c-11.2,0-16.1-6.7-16.1-18.3c0-11.3,5.3-19.4,16.5-19.4
		c5.8,0,8.6,2.2,10.7,4.5L203.2,37.8z"/>
	<path fill="#316EA2" d="M217.7,40.4c1.9-1.7,4.5-2.5,7.1-2.5c5.7,0,7.9,3.7,7.9,9.5v18.3h-8.7v-17c0-2.6-0.5-4.3-2.2-4.3
		c-1.9,0-4.1,2.6-4.1,6.9v14.4h-8.6V27.6l8.6-1.5V40.4z"/>
	<path fill="#316EA2" d="M258.8,52.5c0,8.6,3,11.4,3,11.4l-6.9,2.2c0,0-2-1.9-2.6-5.5c-1.2,3.4-3.5,5.3-7.5,5.3
		c-7.1,0-10.5-5.4-10.5-13.6c0-8.3,5.6-14.5,13.7-14.5c4.5,0,10.7,1.6,10.8,1.6V52.5z M250.2,51v-6.3c-0.5-0.2-1.6-0.4-2.2-0.4
		c-3.5,0-4.5,3.2-4.5,7.6c0,4,0.2,7.8,2.8,7.8C248.5,59.7,250.2,55.6,250.2,51z"/>
	<path fill="#316EA2" d="M262.6,58.9V27.6l8.6-1.5v30.9c0,1.7,0.5,2.3,2.2,2.3c0.8,0,1.9-0.2,2.7-0.3l0.8,5.4
		c-1.1,0.5-3.9,1.4-7.1,1.4C264.8,65.9,262.6,62.8,262.6,58.9z"/>
	<path fill="#316EA2" d="M277.4,58.9V27.6l8.6-1.5v30.9c0,1.7,0.5,2.3,2.2,2.3c0.8,0,1.9-0.2,2.7-0.3l0.8,5.4
		c-1.1,0.5-3.9,1.4-7.1,1.4C279.6,65.9,277.4,62.8,277.4,58.9z"/>
	<path fill="#316EA2" d="M303.8,37.8c6.8,0,9.5,3.5,9.5,8.2c0,5.3-5.4,9.4-14.1,10.1c0.5,2.2,1.7,3.7,4.5,3.7c3.2,0,7.7-1.7,7.7-1.7
		l1.6,5.7c0,0-5,2.5-10.7,2.5c-8.9,0-12.4-5.4-12.4-13.4C290,43,296,37.8,303.8,37.8z M298.9,50.6c4.3-0.1,5.9-2.7,5.9-4.4
		c0-1.4-0.9-2.3-2.1-2.3C299.9,43.9,299,47.5,298.9,50.6z"/>
	<path fill="#316EA2" d="M330.8,65.7v-17c0-2.5-0.5-4.3-2.2-4.3c-2,0-4.1,2.8-4.1,7.6v13.7h-8.6V51.5c0-8.6-3-11.4-3-11.4l6.9-2.2
		c0,0,1.7,1.7,2.5,5c1.9-3.4,5.5-5,9.3-5c5.7,0,7.9,3.8,7.9,9.5v18.3H330.8z"/>
	<path fill="#316EA2" d="M346.9,68.4c3.2,1.1,5.3,1.7,8,1.7c2.9,0,4.9-1.7,4.9-4.9c0-1.6-0.3-3.2-0.8-4.5c-1.3,3.2-3.6,5.1-7.4,5.1
		c-7.1,0-10.5-5.4-10.5-13.6c0-8.3,5.6-14.5,13.7-14.5c4.4,0,10,1.3,11,1.6l-0.2,13.6c-0.1,4.6,2,7.7,2,12.4c0,7.6-4.7,11.9-12,11.9
		c-3.3,0-7.1-0.9-10.5-2.3L346.9,68.4z M356.9,50.6v-5.9c-0.5-0.2-1.6-0.4-2.2-0.4c-3.5,0-4.5,3.2-4.5,7.6c0,4,0.2,7.8,2.8,7.8
		C355.2,59.7,356.9,55.4,356.9,50.6z"/>
	<path fill="#316EA2" d="M381.5,37.8c6.8,0,9.5,3.5,9.5,8.2c0,5.3-5.4,9.4-14.1,10.1c0.5,2.2,1.7,3.7,4.5,3.7c3.2,0,7.7-1.7,7.7-1.7
		l1.6,5.7c0,0-5,2.5-10.7,2.5c-8.9,0-12.4-5.4-12.4-13.4C367.7,43,373.7,37.8,381.5,37.8z M376.5,50.6c4.3-0.1,5.9-2.7,5.9-4.4
		c0-1.4-0.9-2.3-2.1-2.3C377.6,43.9,376.7,47.5,376.5,50.6z"/>
</g>
</svg>
